<?xml version="1.0" encoding="UTF-8"?>
<svg xmlns="http://www.w3.org/2000/svg" xmlns:xlink="http://www.w3.org/1999/xlink" viewBox="0 0 69.34 69.34">
  <defs>
    <style>
      .cls-1 {
        isolation: isolate;
      }

      .cls-2 {
        fill: #b0b1b6;
      }

      .cls-2, .cls-3, .cls-4, .cls-5, .cls-6, .cls-7, .cls-8 {
        stroke-width: 0px;
      }

      .cls-3 {
        fill: #fff;
        opacity: .5;
      }

      .cls-3, .cls-7, .cls-8 {
        mix-blend-mode: overlay;
      }

      .cls-4 {
        fill: url(#radial-gradient-2);
      }

      .cls-5 {
        fill: #5d5e61;
      }

      .cls-6 {
        fill: url(#radial-gradient);
      }

      .cls-7 {
        fill: url(#radial-gradient-3);
      }

      .cls-8 {
        fill: url(#Degradado_sin_nombre_34);
        opacity: .4;
      }
    </style>
    <radialGradient id="radial-gradient" cx="-1921.5" cy="12.93" fx="-1921.5" fy="12.93" r="65.81" gradientTransform="translate(1948.24)" gradientUnits="userSpaceOnUse">
      <stop offset="0" stop-color="#fcfcfc"/>
      <stop offset=".16" stop-color="#f1edf5"/>
      <stop offset="1" stop-color="#9fa1a6"/>
    </radialGradient>
    <radialGradient id="radial-gradient-2" cx="73.55" cy="-8.6" fx="73.55" fy="-8.6" r="58.42" gradientUnits="userSpaceOnUse">
      <stop offset="0" stop-color="#fcfcfc"/>
      <stop offset=".16" stop-color="#adaab0"/>
      <stop offset="1" stop-color="#6b6d70"/>
    </radialGradient>
    <radialGradient id="radial-gradient-3" cx="173.39" cy="-2407.85" fx="173.39" fy="-2407.85" r="9.88" gradientTransform="translate(2317.72 -4457.36) rotate(32.99) scale(1.43 -2.08) skewX(-4.38)" gradientUnits="userSpaceOnUse">
      <stop offset="0" stop-color="#fff"/>
      <stop offset=".1" stop-color="rgba(255, 255, 255, .85)" stop-opacity=".85"/>
      <stop offset=".29" stop-color="rgba(255, 255, 255, .59)" stop-opacity=".59"/>
      <stop offset=".47" stop-color="rgba(255, 255, 255, .38)" stop-opacity=".38"/>
      <stop offset=".63" stop-color="rgba(255, 255, 255, .22)" stop-opacity=".22"/>
      <stop offset=".78" stop-color="rgba(255, 255, 255, .1)" stop-opacity=".1"/>
      <stop offset=".91" stop-color="rgba(255, 255, 255, .03)" stop-opacity=".03"/>
      <stop offset="1" stop-color="#fff" stop-opacity="0"/>
    </radialGradient>
    <radialGradient id="Degradado_sin_nombre_34" data-name="Degradado sin nombre 34" cx="-4413.15" cy="4184.31" fx="-4413.15" fy="4184.31" r="9.53" gradientTransform="translate(6409.57 288.72) rotate(-24.58) scale(1.61 -.68) skewX(11.84)" gradientUnits="userSpaceOnUse">
      <stop offset="0" stop-color="#fff"/>
      <stop offset=".1" stop-color="rgba(255, 255, 255, .85)" stop-opacity=".85"/>
      <stop offset=".29" stop-color="rgba(255, 255, 255, .59)" stop-opacity=".59"/>
      <stop offset=".47" stop-color="rgba(255, 255, 255, .38)" stop-opacity=".38"/>
      <stop offset=".63" stop-color="rgba(255, 255, 255, .22)" stop-opacity=".22"/>
      <stop offset=".78" stop-color="rgba(255, 255, 255, .1)" stop-opacity=".1"/>
      <stop offset=".91" stop-color="rgba(255, 255, 255, .03)" stop-opacity=".03"/>
      <stop offset="1" stop-color="#fff" stop-opacity="0"/>
    </radialGradient>
  </defs>
  <g class="cls-1">
    <g id="Capa_2" data-name="Capa 2">
      <g id="OBJECTS">
        <g>
          <path class="cls-6" d="M69.34,34.67c0,19.15-15.52,34.67-34.67,34.67S0,53.82,0,34.67,15.52,0,34.67,0s34.67,15.52,34.67,34.67Z"/>
          <path class="cls-3" d="M29.65,24.03c0,17.66,13.21,32.22,30.28,34.38.83-.88,1.61-1.79,2.34-2.75,4.25-5.75,6.76-12.86,6.76-20.56,0-17.68-13.25-32.27-30.36-34.39-5.61,6.16-9.02,14.35-9.02,23.33Z"/>
          <path class="cls-4" d="M38.98.28c-5.61,6.16-9.02,14.35-9.02,23.33,0,17.68,13.25,32.27,30.36,34.39,5.61-6.16,9.02-14.34,9.02-23.33C69.34,16.98,56.09,2.4,38.98.28Z"/>
          <g>
            <path class="cls-2" d="M10.44,40.8c3.26-.29,5.59-3.99,5.2-8.25-.38-4.27-3.33-7.49-6.59-7.19-3.26.29-5.59,3.99-5.2,8.25.38,4.27,3.33,7.49,6.59,7.19Z"/>
            <path class="cls-2" d="M7.62,43.9c-1.96,1.03-2.45,3.93-1.1,6.48,1.34,2.56,4.01,3.79,5.96,2.77,1.95-1.02,2.44-3.93,1.1-6.48-1.34-2.55-4.01-3.8-5.96-2.77Z"/>
            <path class="cls-2" d="M15.35,40.82c-1.15.61-1.45,2.32-.65,3.83.79,1.51,2.37,2.24,3.52,1.64,1.15-.6,1.44-2.32.65-3.83-.79-1.51-2.37-2.24-3.52-1.64Z"/>
            <path class="cls-5" d="M66.69,35.92c-.6-4.24-3.71-7.31-6.95-6.85-3.24.46-5.38,4.27-4.78,8.51.6,4.24,3.71,7.31,6.95,6.85,3.24-.46,5.38-4.27,4.78-8.5Z"/>
            <path class="cls-5" d="M62.41,25.83c1.9-1.12,2.24-4.05.77-6.53-1.47-2.48-4.2-3.59-6.09-2.46-1.89,1.12-2.24,4.05-.77,6.53,1.47,2.49,4.2,3.59,6.09,2.47Z"/>
            <path class="cls-5" d="M55.29,25.44c-.87-1.47-2.48-2.12-3.6-1.46-1.12.66-1.32,2.39-.46,3.86.87,1.47,2.48,2.12,3.6,1.46s1.33-2.39.46-3.86Z"/>
          </g>
          <g>
            <path class="cls-7" d="M29.49,31.4c5.68-9.85,5-21.27-1.53-25.5-6.53-4.24-16.43.31-22.11,10.16C.16,25.9.86,37.32,7.38,41.55c6.54,4.24,16.43-.31,22.11-10.16Z"/>
            <path class="cls-8" d="M65.23,49.18c.12-4.01-6.02-4.4-13.72-.88-7.7,3.52-14.03,9.62-14.15,13.63-.12,4,6.02,4.4,13.72.88,7.69-3.52,14.03-9.63,14.15-13.63Z"/>
          </g>
        </g>
      </g>
    </g>
  </g>
</svg>