<?xml version="1.0" encoding="UTF-8"?>
<svg xmlns="http://www.w3.org/2000/svg" xmlns:xlink="http://www.w3.org/1999/xlink" viewBox="0 0 78.2 65.04">
  <defs>
    <style>
      .cls-1 {
        fill: url(#radial-gradient-4);
        opacity: .5;
      }

      .cls-1, .cls-2, .cls-3, .cls-4, .cls-5, .cls-6, .cls-7, .cls-8 {
        stroke-width: 0px;
      }

      .cls-1, .cls-3, .cls-4, .cls-5, .cls-8 {
        mix-blend-mode: overlay;
      }

      .cls-9 {
        isolation: isolate;
      }

      .cls-2 {
        fill: #b0b1b6;
      }

      .cls-3 {
        fill: url(#radial-gradient-2);
      }

      .cls-4 {
        fill: url(#Degradado_sin_nombre_34-2);
        opacity: .2;
      }

      .cls-5 {
        fill: url(#radial-gradient-5);
        opacity: .3;
      }

      .cls-6 {
        fill: url(#radial-gradient);
      }

      .cls-7 {
        fill: url(#radial-gradient-3);
      }

      .cls-8 {
        fill: url(#Degradado_sin_nombre_34);
        opacity: .4;
      }
    </style>
    <radialGradient id="radial-gradient" cx="-155.83" cy="10.22" fx="-155.83" fy="10.22" r="52" gradientTransform="translate(-98.75) rotate(-180) scale(1 -1)" gradientUnits="userSpaceOnUse">
      <stop offset="0" stop-color="#fcfcfc"/>
      <stop offset=".16" stop-color="#f1edf5"/>
      <stop offset="1" stop-color="#9fa1a6"/>
    </radialGradient>
    <radialGradient id="radial-gradient-2" cx="1102.33" cy="-1958.09" fx="1102.33" fy="-1958.09" r="7.81" gradientTransform="translate(-2182.75 -3826.27) rotate(126.03) scale(1.43 2.08) skewX(-4.38)" gradientUnits="userSpaceOnUse">
      <stop offset="0" stop-color="#fff"/>
      <stop offset=".1" stop-color="rgba(255, 255, 255, .85)" stop-opacity=".85"/>
      <stop offset=".29" stop-color="rgba(255, 255, 255, .59)" stop-opacity=".59"/>
      <stop offset=".47" stop-color="rgba(255, 255, 255, .38)" stop-opacity=".38"/>
      <stop offset=".63" stop-color="rgba(255, 255, 255, .22)" stop-opacity=".22"/>
      <stop offset=".78" stop-color="rgba(255, 255, 255, .1)" stop-opacity=".1"/>
      <stop offset=".91" stop-color="rgba(255, 255, 255, .03)" stop-opacity=".03"/>
      <stop offset="1" stop-color="#fff" stop-opacity="0"/>
    </radialGradient>
    <radialGradient id="Degradado_sin_nombre_34" data-name="Degradado sin nombre 34" cx="-3014.83" cy="2819.97" fx="-3014.83" fy="2819.97" r="7.53" gradientTransform="translate(-4123.08 -1222.9) rotate(-136.79) scale(1.61 .68) skewX(11.83)" gradientUnits="userSpaceOnUse">
      <stop offset="0" stop-color="#fff"/>
      <stop offset=".1" stop-color="rgba(255, 255, 255, .85)" stop-opacity=".85"/>
      <stop offset=".29" stop-color="rgba(255, 255, 255, .59)" stop-opacity=".59"/>
      <stop offset=".47" stop-color="rgba(255, 255, 255, .38)" stop-opacity=".38"/>
      <stop offset=".63" stop-color="rgba(255, 255, 255, .22)" stop-opacity=".22"/>
      <stop offset=".78" stop-color="rgba(255, 255, 255, .1)" stop-opacity=".1"/>
      <stop offset=".91" stop-color="rgba(255, 255, 255, .03)" stop-opacity=".03"/>
      <stop offset="1" stop-color="#fff" stop-opacity="0"/>
    </radialGradient>
    <radialGradient id="radial-gradient-3" cx="1345.95" cy="24.15" fx="1345.95" fy="24.15" r="58.83" gradientTransform="translate(1360.76) rotate(-180) scale(1 -1)" gradientUnits="userSpaceOnUse">
      <stop offset="0" stop-color="#bad0d6"/>
      <stop offset=".2" stop-color="#9bbac2"/>
      <stop offset="1" stop-color="#5d8bb8"/>
    </radialGradient>
    <radialGradient id="radial-gradient-4" cx="543.6" cy="-2461.9" fx="543.6" fy="-2461.9" r="6.9" gradientTransform="translate(3543.51 -3826.27) rotate(53.97) scale(1.43 -2.08) skewX(-4.38)" xlink:href="#radial-gradient-2"/>
    <radialGradient id="radial-gradient-5" cx="563.98" cy="-2451.68" fx="563.98" fy="-2451.68" r="3.79" gradientTransform="translate(3543.51 -3826.27) rotate(53.97) scale(1.43 -2.08) skewX(-4.38)" xlink:href="#radial-gradient-2"/>
    <radialGradient id="Degradado_sin_nombre_34-2" data-name="Degradado sin nombre 34" cx="1460.63" cy="106.85" fx="1460.63" fy="106.85" r="3.97" gradientTransform="translate(1241.28 530.11) rotate(-146.99) scale(.84 -2.3) skewX(11.81)" xlink:href="#Degradado_sin_nombre_34"/>
  </defs>
  <g class="cls-9">
    <g id="Capa_2" data-name="Capa 2">
      <g id="OBJECTS">
        <g>
          <g>
            <path class="cls-6" d="M23.42,27.39c0,15.13,12.26,27.39,27.39,27.39s27.39-12.26,27.39-27.39S65.94,0,50.81,0s-27.39,12.26-27.39,27.39Z"/>
            <g>
              <path class="cls-2" d="M31.67,32.24c2.58-.23,4.41-3.15,4.11-6.52-.3-3.37-2.63-5.91-5.21-5.68-2.57.23-4.41,3.15-4.11,6.52.3,3.37,2.63,5.91,5.21,5.68Z"/>
              <path class="cls-2" d="M29.44,34.69c-1.54.81-1.93,3.1-.87,5.12,1.06,2.02,3.17,3,4.71,2.19,1.54-.81,1.93-3.1.87-5.12-1.06-2.02-3.17-3-4.71-2.19Z"/>
              <path class="cls-2" d="M35.55,32.25c-.91.48-1.14,1.83-.51,3.03.63,1.19,1.87,1.77,2.78,1.3.91-.48,1.14-1.83.51-3.03-.63-1.19-1.87-1.77-2.78-1.29Z"/>
              <path class="cls-2" d="M76.11,28.38c-.47-3.35-2.93-5.77-5.49-5.41-2.56.36-4.25,3.37-3.77,6.72.47,3.35,2.93,5.77,5.49,5.41,2.56-.36,4.25-3.37,3.78-6.72Z"/>
              <path class="cls-2" d="M72.73,20.41c1.5-.89,1.77-3.2.61-5.16-1.16-1.96-3.31-2.83-4.81-1.95-1.5.88-1.77,3.2-.61,5.16,1.16,1.96,3.31,2.84,4.81,1.95Z"/>
              <path class="cls-2" d="M67.11,20.1c-.68-1.16-1.96-1.67-2.84-1.15-.88.52-1.05,1.89-.36,3.05.68,1.16,1.96,1.67,2.85,1.15.88-.52,1.05-1.89.36-3.05Z"/>
            </g>
            <g>
              <path class="cls-3" d="M54.99,24.58c-6.97-5.66-9.7-14.28-6.08-19.25,3.62-4.97,12.21-4.42,19.19,1.24,6.97,5.66,9.69,14.28,6.08,19.25-3.62,4.98-12.21,4.42-19.18-1.24Z"/>
              <path class="cls-8" d="M26.6,33.45c.93-3.03,5.62-1.77,10.5,2.81,4.87,4.58,8.07,10.75,7.15,13.78-.92,3.03-5.62,1.77-10.5-2.8-4.87-4.58-8.08-10.75-7.16-13.78Z"/>
            </g>
          </g>
          <g>
            <path class="cls-7" d="M23.69,17.65c11.16,0,20.51,7.72,23.03,18.11,2.03-.98,4.29-1.55,6.7-1.55,8.51,0,15.41,6.9,15.41,15.41s-6.9,15.42-15.41,15.42h-29.73c-13.09,0-23.69-10.61-23.69-23.7s10.61-23.69,23.69-23.69Z"/>
            <path class="cls-1" d="M20.66,40.29c6.17-5,8.58-12.63,5.38-17.02-3.2-4.4-10.8-3.91-16.97,1.1C2.9,29.37.5,36.99,3.69,41.39c3.2,4.4,10.8,3.91,16.97-1.1Z"/>
            <path class="cls-5" d="M51.71,46.79c3.39-2.75,4.71-6.94,2.96-9.36-1.76-2.42-5.93-2.15-9.33.6-3.39,2.75-4.71,6.94-2.96,9.36,1.76,2.42,5.94,2.15,9.33-.6Z"/>
            <path class="cls-4" d="M59.23,52.78c3.73-3.77,7.58-5.25,8.61-3.3,1.02,1.95-1.17,6.59-4.9,10.36-3.73,3.77-7.58,5.25-8.61,3.3-1.02-1.95,1.17-6.59,4.9-10.36Z"/>
          </g>
        </g>
      </g>
    </g>
  </g>
</svg>