<?xml version="1.0" encoding="UTF-8"?>
<svg id="Capa_2" data-name="Capa 2" xmlns="http://www.w3.org/2000/svg" xmlns:xlink="http://www.w3.org/1999/xlink" viewBox="0 0 64.55 73.47">
  <defs>
    <style>
      .cls-1 {
        fill: url(#radial-gradient);
        stroke-width: 0px;
      }
    </style>
    <radialGradient id="radial-gradient" cx="53.35" cy="22.08" fx="53.35" fy="22.08" r="62.65" gradientUnits="userSpaceOnUse">
      <stop offset="0" stop-color="#28cbe9"/>
      <stop offset="1" stop-color="#0a4fbb"/>
    </radialGradient>
  </defs>
  <g id="OBJECTS">
    <path class="cls-1" d="M62.83,50.39l-6.72-3.88,2.08-1.2c1.65-.95,2.22-3.06,1.26-4.71-.95-1.65-3.06-2.21-4.71-1.26l-5.53,3.19-5.1-2.95c.22-.92.35-1.87.35-2.85s-.13-1.93-.35-2.85l5.1-2.95,5.53,3.19c.54.31,1.14.46,1.72.46,1.19,0,2.35-.62,2.99-1.73.95-1.65.39-3.76-1.26-4.71l-2.08-1.2,6.72-3.88c1.65-.95,2.21-3.06,1.26-4.71-.95-1.65-3.06-2.22-4.71-1.26l-6.72,3.88v-2.4c0-1.91-1.54-3.45-3.45-3.45h0c-1.9,0-3.45,1.54-3.45,3.45v6.38s-5.11,2.95-5.11,2.95c-1.38-1.31-3.06-2.3-4.93-2.85v-5.89l5.53-3.19c1.65-.95,2.21-3.06,1.26-4.71-.95-1.65-3.06-2.22-4.71-1.26l-2.08,1.2V3.45c0-1.9-1.54-3.45-3.45-3.45s-3.45,1.54-3.45,3.45v7.76l-2.08-1.2c-1.65-.95-3.76-.39-4.71,1.26-.95,1.65-.39,3.76,1.26,4.71l5.53,3.19v5.89c-1.87.55-3.55,1.55-4.93,2.86l-5.11-2.95v-6.38c0-1.9-1.54-3.45-3.45-3.45s-3.45,1.54-3.45,3.45v2.4l-6.72-3.88c-1.65-.96-3.76-.39-4.71,1.26-.95,1.65-.39,3.76,1.26,4.71l6.72,3.88-2.08,1.2c-1.65.95-2.21,3.06-1.26,4.71.64,1.11,1.8,1.72,2.99,1.72.58,0,1.18-.15,1.72-.46l5.53-3.19,5.11,2.95c-.22.92-.35,1.87-.35,2.85s.13,1.93.35,2.85l-5.11,2.95-5.53-3.19c-1.65-.96-3.76-.39-4.71,1.26-.96,1.65-.39,3.76,1.26,4.71l2.08,1.2-6.72,3.88c-1.65.95-2.21,3.06-1.26,4.71.64,1.11,1.8,1.72,2.99,1.72.59,0,1.18-.15,1.72-.46l6.72-3.88v2.4c0,1.9,1.54,3.45,3.45,3.45s3.45-1.54,3.45-3.45v-6.38s5.11-2.95,5.11-2.95c1.38,1.31,3.06,2.3,4.93,2.86v5.89l-5.53,3.19c-1.65.95-2.22,3.06-1.26,4.71.95,1.65,3.06,2.22,4.71,1.26l2.08-1.2v7.76c0,1.9,1.54,3.45,3.45,3.45s3.45-1.54,3.45-3.45v-7.76l2.08,1.2c.54.31,1.14.46,1.72.46,1.19,0,2.35-.62,2.99-1.72.95-1.65.39-3.76-1.26-4.71l-5.53-3.19v-5.89c1.87-.55,3.55-1.54,4.93-2.85l5.11,2.95v6.38c0,1.91,1.54,3.45,3.45,3.45s3.45-1.54,3.45-3.45v-2.4l6.72,3.88c.54.31,1.14.46,1.72.46,1.19,0,2.35-.62,2.99-1.72.95-1.65.39-3.76-1.26-4.71ZM32.28,42.01c-2.91,0-5.28-2.37-5.28-5.28s2.37-5.28,5.28-5.28,5.28,2.37,5.28,5.28-2.37,5.28-5.28,5.28Z"/>
  </g>
</svg>